<svg xmlns="http://www.w3.org/2000/svg" width="337.7679138183594" height="236.3380889892578" viewBox="-166.41006469726562 -107.56214904785156 337.7679138183594 236.3380889892578"><title>Neo4j Graph Visualization</title><desc>Created using Neo4j (http://www.neo4j.com/)</desc><g class="layer relationships"><g class="relationship" transform="translate(75.83621778274161 57.20923909539784) rotate(242.02812699984878)"><path class="b-outline" fill="#F79767" stroke="none" d="M 21.40063509461097,-12.933012701892217 L 21.90063509461097,-12.06698729810778 A 107.33378112342244 107.33378112342244 0 0 1 57.478944578483805,-24.911806363640252 L 57.31041812866985,-25.897503495477977 A 108.33378112342244 108.33378112342244 0 0 0 21.40063509461097,-12.933012701892217 Z M 89.13149240809075,-26.594492617998426 L 89.00628707868094,-25.602361767007807 A 107.33378112342244 107.33378112342244 0 0 1 125.11289508073378,-14.327684780832378 L 123.72809239589853,-11.666421636370133 L 131.55330953195156,-11.540022373627158 L 126.95929866051412,-17.87603564011537 L 125.57449597567887,-15.214772495653126 A 108.33378112342244 108.33378112342244 0 0 0 89.13149240809075,-26.594492617998426"/><text text-anchor="middle" pointer-events="none" font-size="8px" fill="#000000" x="73.20616760647376" y="-23.921129522557337" transform="rotate(180 73.20616760647376 -26.921129522557337)" font-family="Helvetica Neue, Helvetica, Arial, sans-serif">Leaves</text></g><g class="relationship" transform="translate(75.83621778274161 57.20923909539784) rotate(180.30560270307905)"><path class="b-outline" fill="#57C7E3" stroke="none" d="M 24.018736134675446,-6.953439040707552 L 24.277555179777966,-5.987513214418485 A 183.71201637451486 183.71201637451486 0 0 1 46.343403684632925,-10.471464529566731 L 46.204695718491465,-11.46179785735535 A 184.71201637451486 184.71201637451486 0 0 0 24.018736134675446,-6.953439040707552 Z M 93.11190328261216,-12.016741295386083 L 92.99666346297982,-11.023403596528766 A 183.71201637451486 183.71201637451486 0 0 1 115.16241735604704,-7.062741532201068 L 114.45473321464587,-4.1474056757328475 L 122.08281504470642,-5.897367845009719 L 116.1059962112486,-10.94985600749203 L 115.39831206984742,-8.03452015102381 A 184.71201637451486 184.71201637451486 0 0 0 93.11190328261216,-12.016741295386083"/><text text-anchor="middle" pointer-events="none" font-size="8px" fill="#000000" x="69.64652575844273" y="-9.734458143472779" transform="rotate(180 69.64652575844273 -12.734458143472779)" font-family="Helvetica Neue, Helvetica, Arial, sans-serif">CreateChat</text></g><g class="relationship" transform="translate(75.83621778274161 57.20923909539784) rotate(301.1668648514639)"><path class="b-outline" fill="#569480" stroke="none" d="M 6.953439040707552 24.018736134675446 L 17.306200844808384 62.65576918623819 A 17.916697508022974 17.916697508022974 0 1 1 -17.306200844808384 62.65576918623819 L -8.765172356425198 30.780216918698923 L -4.901469051268926 31.815493099109005 L -6.4704761275630185 24.148145657226706 L -11.662949835292403 30.00375978339136 L -7.79924653013613 31.039035963801442 L -16.340275018519314 62.91458823134071 A 16.916697508022974 16.916697508022974 0 1 0 16.340275018519314 62.91458823134071 L 5.987513214418485 24.277555179777966 Z"/><text text-anchor="middle" pointer-events="none" font-size="8px" fill="#000000" x="0" y="94.20964923467838" font-family="Helvetica Neue, Helvetica, Arial, sans-serif">InteractsWith</text></g><g class="relationship" transform="translate(75.83621778274161 57.20923909539784) rotate(242.02812699984878)"><path class="b-outline" fill="#D9C8AE" stroke="none" d="M 25 0.5 L 42.12892307623517 0.5 L 42.12892307623517 -0.5 L 25 -0.5 Z M 104.60157932623517 0.5 L 121.73050240247034 0.5 L 121.73050240247034 3.5 L 128.73050240247034 0 L 121.73050240247034 -3.5 L 121.73050240247034 -0.5 L 104.60157932623517 -0.5 Z"/><text text-anchor="middle" pointer-events="none" font-size="8px" fill="#000000" x="73.36525120123517" y="3" transform="rotate(180 73.36525120123517 0)" font-family="Helvetica Neue, Helvetica, Arial, sans-serif">CreatesSession</text></g><g class="relationship" transform="translate(3.730761245390127 -78.5621515082785) rotate(539.8243652629068)"><path class="b-outline" fill="#D9C8AE" stroke="none" d="M 25 0.5 L 38.67114151658524 0.5 L 38.67114151658524 -0.5 L 25 -0.5 Z M 79.35473526658524 0.5 L 93.02587678317047 0.5 L 93.02587678317047 3.5 L 100.02587678317047 0 L 93.02587678317047 -3.5 L 93.02587678317047 -0.5 L 79.35473526658524 -0.5 Z"/><text text-anchor="middle" pointer-events="none" font-size="8px" fill="#000000" x="59.01293839158524" y="3" transform="rotate(180 59.01293839158524 0)" font-family="Helvetica Neue, Helvetica, Arial, sans-serif">OwnedBy</text></g><g class="relationship" transform="translate(-70.53898058371502 56.42849955626687) rotate(419.56225231058346)"><path class="b-outline" fill="#F16667" stroke="none" d="M 6.953439040707552 24.018736134675446 L 17.306200844808384 62.65576918623819 A 17.916697508022974 17.916697508022974 0 1 1 -17.306200844808384 62.65576918623819 L -8.765172356425198 30.780216918698923 L -4.901469051268926 31.815493099109005 L -6.4704761275630185 24.148145657226706 L -11.662949835292403 30.00375978339136 L -7.79924653013613 31.039035963801442 L -16.340275018519314 62.91458823134071 A 16.916697508022974 16.916697508022974 0 1 0 16.340275018519314 62.91458823134071 L 5.987513214418485 24.277555179777966 Z"/><text text-anchor="middle" pointer-events="none" font-size="8px" fill="#000000" x="0" y="94.20964923467838" font-family="Helvetica Neue, Helvetica, Arial, sans-serif">ResponseTo</text></g><g class="relationship" transform="translate(-70.53898058371502 56.42849955626687) rotate(298.8189019180878)"><path class="b-outline" fill="#C990C0" stroke="none" d="M 25 0.5 L 58.97787557815616 0.5 L 58.97787557815616 -0.5 L 25 -0.5 Z M 88.09506307815616 0.5 L 122.07293865631232 0.5 L 122.07293865631232 3.5 L 129.07293865631232 0 L 122.07293865631232 -3.5 L 122.07293865631232 -0.5 L 88.09506307815616 -0.5 Z"/><text text-anchor="middle" pointer-events="none" font-size="8px" fill="#000000" x="73.53646932815616" y="3" font-family="Helvetica Neue, Helvetica, Arial, sans-serif">PartOf</text></g><g class="relationship" transform="translate(-70.53898058371502 56.42849955626687) rotate(360.30560270307905)"><path class="b-outline" fill="#8DCC93" stroke="none" d="M 24.018736134675446,-6.953439040707552 L 24.277555179777966,-5.987513214418485 A 183.71201637451486 183.71201637451486 0 0 1 48.09801622005368,-10.708603506522678 L 47.96885913996773,-11.700227653396695 A 184.71201637451486 184.71201637451486 0 0 0 24.018736134675446,-6.953439040707552 Z M 91.34259285659887,-12.213367747614285 L 91.23693178804479,-11.218965545991608 A 183.71201637451486 183.71201637451486 0 0 1 115.16241735604704,-7.062741532201068 L 114.45473321464587,-4.1474056757328475 L 122.08281504470642,-5.897367845009719 L 116.1059962112486,-10.94985600749203 L 115.39831206984742,-8.03452015102381 A 184.71201637451486 184.71201637451486 0 0 0 91.34259285659887,-12.213367747614285"/><text text-anchor="middle" pointer-events="none" font-size="8px" fill="#000000" x="69.64652575844273" y="-9.734458143472779" font-family="Helvetica Neue, Helvetica, Arial, sans-serif">Mentioned</text></g><g class="relationship" transform="translate(75.83621778274161 57.20923909539784) rotate(242.02812699984878)"><path class="b-outline" fill="#DA7194" stroke="none" d="M 21.40063509461097,12.933012701892217 L 21.90063509461097,12.06698729810778 A 107.33378112342244 107.33378112342244 0 0 0 60.9815169869784,25.45129398161795 L 60.845623063213885,26.442017374641395 A 108.33378112342244 108.33378112342244 0 0 1 21.40063509461097,12.933012701892217 Z M 85.575835981591,26.983692657203136 L 85.48345196045297,25.987969205315835 A 107.33378112342244 107.33378112342244 0 0 0 125.11289508073378,14.327684780832378 L 123.72809239589853,11.666421636370133 L 131.55330953195156,11.540022373627158 L 126.95929866051412,17.87603564011537 L 125.57449597567887,15.214772495653126 A 108.33378112342244 108.33378112342244 0 0 1 85.575835981591,26.983692657203136"/><text text-anchor="middle" pointer-events="none" font-size="8px" fill="#000000" x="73.20616760647377" y="29.921129522557337" transform="rotate(180 73.20616760647377 26.921129522557337)" font-family="Helvetica Neue, Helvetica, Arial, sans-serif">Joins</text></g></g><g class="layer nodes"><g class="node" aria-label="graph-node-161" transform="translate(75.83621778274161,57.20923909539784)"><circle class="b-outline" cx="0" cy="0" r="25" fill="#ECB5C9" stroke="#da7298" stroke-width="2px"/><text class="caption" text-anchor="middle" pointer-events="none" x="0" y="5" font-size="10px" fill="#2A2C34" font-family="Helvetica Neue, Helvetica, Arial, sans-serif"> User</text></g><g class="node" aria-label="graph-node-163" transform="translate(3.730761245390127,-78.5621515082785)"><circle class="b-outline" cx="0" cy="0" r="25" fill="#4C8EDA" stroke="#2870c2" stroke-width="2px"/><text class="caption" text-anchor="middle" pointer-events="none" x="0" y="5" font-size="10px" fill="#FFFFFF" font-family="Helvetica Neue, Helvetica, Arial, sans-serif"> TeamCh…</text></g><g class="node" aria-label="graph-node-164" transform="translate(-70.53898058371502,56.42849955626687)"><circle class="b-outline" cx="0" cy="0" r="25" fill="#FFC454" stroke="#d7a013" stroke-width="2px"/><text class="caption" text-anchor="middle" pointer-events="none" x="0" y="5" font-size="10px" fill="#2A2C34" font-family="Helvetica Neue, Helvetica, Arial, sans-serif"> ChatItem</text></g><g class="node" aria-label="graph-node-162" transform="translate(-121.29452812263708,-78.1788972303003)"><circle class="b-outline" cx="0" cy="0" r="25" fill="#DA7194" stroke="#cc3c6c" stroke-width="2px"/><text class="caption" text-anchor="middle" pointer-events="none" x="0" y="5" font-size="10px" fill="#FFFFFF" font-family="Helvetica Neue, Helvetica, Arial, sans-serif"> Team</text></g></g></svg>