<svg xmlns="http://www.w3.org/2000/svg" width="1056.8824462890625" height="432.02069091796875" viewBox="-690.8379516601562 -201.0618896484375 1056.8824462890625 432.02069091796875"><title>Neo4j Graph Visualization</title><desc>Created using Neo4j (http://www.neo4j.com/)</desc><g class="layer relationships"><g class="relationship" transform="translate(-661.8379447084266 -164.83593374695988) rotate(363.30800403131525)"><path class="b-outline" fill="#F16667" stroke="none" d="M 25 0.5 L 69.0576433029878 0.5 L 69.0576433029878 -0.5 L 25 -0.5 Z M 119.5302995529878 0.5 L 163.5879428559756 0.5 L 163.5879428559756 3.5 L 170.5879428559756 0 L 163.5879428559756 -3.5 L 163.5879428559756 -0.5 L 119.5302995529878 -0.5 Z"/><text text-anchor="middle" pointer-events="none" font-size="8px" fill="#000000" x="94.2939714279878" y="3" font-family="Helvetica Neue, Helvetica, Arial, sans-serif">ResponseTo</text></g><g class="relationship" transform="translate(-466.575897256429 -153.5498265577542) rotate(359.0626548884662)"><path class="b-outline" fill="#F16667" stroke="none" d="M 25 0.5 L 61.83556467665295 0.5 L 61.83556467665295 -0.5 L 25 -0.5 Z M 112.30822092665295 0.5 L 149.1437856033059 0.5 L 149.1437856033059 3.5 L 156.1437856033059 0 L 149.1437856033059 -3.5 L 149.1437856033059 -0.5 L 112.30822092665295 -0.5 Z"/><text text-anchor="middle" pointer-events="none" font-size="8px" fill="#000000" x="87.07189280165295" y="3" font-family="Helvetica Neue, Helvetica, Arial, sans-serif">ResponseTo</text></g><g class="relationship" transform="translate(-285.4563519274442 -156.5131629406623) rotate(354.5579787442964)"><path class="b-outline" fill="#F16667" stroke="none" d="M 25 0.5 L 53.238522326398396 0.5 L 53.238522326398396 -0.5 L 25 -0.5 Z M 103.7111785763984 0.5 L 131.9497009027968 0.5 L 131.9497009027968 3.5 L 138.9497009027968 0 L 131.9497009027968 -3.5 L 131.9497009027968 -0.5 L 103.7111785763984 -0.5 Z"/><text text-anchor="middle" pointer-events="none" font-size="8px" fill="#000000" x="78.4748504513984" y="3" font-family="Helvetica Neue, Helvetica, Arial, sans-serif">ResponseTo</text></g><g class="relationship" transform="translate(-122.24562529071167 -172.0618971922438) rotate(366.0789469825423)"><path class="b-outline" fill="#F16667" stroke="none" d="M 25 0.5 L 48.29427096598006 0.5 L 48.29427096598006 -0.5 L 25 -0.5 Z M 98.76692721598006 0.5 L 122.06119818196012 0.5 L 122.06119818196012 3.5 L 129.06119818196012 0 L 122.06119818196012 -3.5 L 122.06119818196012 -0.5 L 98.76692721598006 -0.5 Z"/><text text-anchor="middle" pointer-events="none" font-size="8px" fill="#000000" x="73.53059909098006" y="3" font-family="Helvetica Neue, Helvetica, Arial, sans-serif">ResponseTo</text></g><g class="relationship" transform="translate(30.94927493464357 -155.74701655508773) rotate(447.9950438601495)"><path class="b-outline" fill="#F16667" stroke="none" d="M 25 0.5 L 50.520018147578284 0.5 L 50.520018147578284 -0.5 L 25 -0.5 Z M 100.99267439757828 0.5 L 126.51269254515657 0.5 L 126.51269254515657 3.5 L 133.51269254515657 0 L 126.51269254515657 -3.5 L 126.51269254515657 -0.5 L 100.99267439757828 -0.5 Z"/><text text-anchor="middle" pointer-events="none" font-size="8px" fill="#000000" x="75.75634627257828" y="3" font-family="Helvetica Neue, Helvetica, Arial, sans-serif">ResponseTo</text></g><g class="relationship" transform="translate(36.494991251891356 2.66863522352898) rotate(455.8640747712788)"><path class="b-outline" fill="#F16667" stroke="none" d="M 25 0.5 L 49.226027366776464 0.5 L 49.226027366776464 -0.5 L 25 -0.5 Z M 99.69868361677646 0.5 L 123.92471098355293 0.5 L 123.92471098355293 3.5 L 130.92471098355293 0 L 123.92471098355293 -3.5 L 123.92471098355293 -0.5 L 99.69868361677646 -0.5 Z"/><text text-anchor="middle" pointer-events="none" font-size="8px" fill="#000000" x="74.46235549177646" y="3" transform="rotate(180 74.46235549177646 0)" font-family="Helvetica Neue, Helvetica, Arial, sans-serif">ResponseTo</text></g><g class="relationship" transform="translate(20.564346819969053 157.77740371611992) rotate(523.4620460063685)"><path class="b-outline" fill="#F16667" stroke="none" d="M 25 0.5 L 48.870047189003444 0.5 L 48.870047189003444 -0.5 L 25 -0.5 Z M 99.34270343900344 0.5 L 123.21275062800689 0.5 L 123.21275062800689 3.5 L 130.2127506280069 0 L 123.21275062800689 -3.5 L 123.21275062800689 -0.5 L 99.34270343900344 -0.5 Z"/><text text-anchor="middle" pointer-events="none" font-size="8px" fill="#000000" x="74.10637531400344" y="3" transform="rotate(180 74.10637531400344 0)" font-family="Helvetica Neue, Helvetica, Arial, sans-serif">ResponseTo</text></g><g class="relationship" transform="translate(-128.2274675107115 201.95877926845122) rotate(185.37270222081952)"><path class="b-outline" fill="#F16667" stroke="none" d="M 25 0.5 L 54.974460246436664 0.5 L 54.974460246436664 -0.5 L 25 -0.5 Z M 105.44711649643666 0.5 L 135.42157674287333 0.5 L 135.42157674287333 3.5 L 142.42157674287333 0 L 135.42157674287333 -3.5 L 135.42157674287333 -0.5 L 105.44711649643666 -0.5 Z"/><text text-anchor="middle" pointer-events="none" font-size="8px" fill="#000000" x="80.21078837143666" y="3" transform="rotate(180 80.21078837143666 0)" font-family="Helvetica Neue, Helvetica, Arial, sans-serif">ResponseTo</text></g><g class="relationship" transform="translate(-294.9135090665026 186.2824305376116) rotate(183.46414475679)"><path class="b-outline" fill="#F16667" stroke="none" d="M 25 0.5 L 58.632936439821094 0.5 L 58.632936439821094 -0.5 L 25 -0.5 Z M 109.1055926898211 0.5 L 142.7385291296422 0.5 L 142.7385291296422 3.5 L 149.7385291296422 0 L 142.7385291296422 -3.5 L 142.7385291296422 -0.5 L 109.1055926898211 -0.5 Z"/><text text-anchor="middle" pointer-events="none" font-size="8px" fill="#000000" x="83.8692645648211" y="3" transform="rotate(180 83.8692645648211 0)" font-family="Helvetica Neue, Helvetica, Arial, sans-serif">ResponseTo</text></g><g class="relationship" transform="translate(224.03335724799712 -7.106264028685576) rotate(266.7900262659927)"><path class="b-outline" fill="#F16667" stroke="none" d="M 25 0.5 L 44.12453584489664 0.5 L 44.12453584489664 -0.5 L 25 -0.5 Z M 94.59719209489664 0.5 L 113.72172793979328 0.5 L 113.72172793979328 3.5 L 120.72172793979328 0 L 113.72172793979328 -3.5 L 113.72172793979328 -0.5 L 94.59719209489664 -0.5 Z"/><text text-anchor="middle" pointer-events="none" font-size="8px" fill="#000000" x="69.36086396989664" y="3" transform="rotate(180 69.36086396989664 0)" font-family="Helvetica Neue, Helvetica, Arial, sans-serif">ResponseTo</text></g><g class="relationship" transform="translate(215.87362432330758 -152.5993592337738) rotate(180.9751558753685)"><path class="b-outline" fill="#F16667" stroke="none" d="M 25 0.5 L 63.739239923313576 0.5 L 63.739239923313576 -0.5 L 25 -0.5 Z M 114.21189617331358 0.5 L 152.95113609662715 0.5 L 152.95113609662715 3.5 L 159.95113609662715 0 L 152.95113609662715 -3.5 L 152.95113609662715 -0.5 L 114.21189617331358 -0.5 Z"/><text text-anchor="middle" pointer-events="none" font-size="8px" fill="#000000" x="88.97556804831358" y="3" transform="rotate(180 88.97556804831358 0)" font-family="Helvetica Neue, Helvetica, Arial, sans-serif">ResponseTo</text></g><g class="relationship" transform="translate(337.0444866619824 -76.9235548715009) rotate(211.98634293589942)"><path class="b-outline" fill="#F16667" stroke="none" d="M 25 0.5 L 42.694066746117514 0.5 L 42.694066746117514 -0.5 L 25 -0.5 Z M 93.16672299611751 0.5 L 110.86078974223503 0.5 L 110.86078974223503 3.5 L 117.86078974223503 0 L 110.86078974223503 -3.5 L 110.86078974223503 -0.5 L 93.16672299611751 -0.5 Z"/><text text-anchor="middle" pointer-events="none" font-size="8px" fill="#000000" x="67.93039487111751" y="3" transform="rotate(180 67.93039487111751 0)" font-family="Helvetica Neue, Helvetica, Arial, sans-serif">ResponseTo</text></g></g><g class="layer nodes"><g class="node" aria-label="graph-node35347" transform="translate(-661.8379447084266,-164.83593374695988)"><circle class="b-outline" cx="0" cy="0" r="25" fill="#FFC454" stroke="#d7a013" stroke-width="2px"/><text class="caption" text-anchor="middle" pointer-events="none" x="0" y="5" font-size="10px" fill="#2A2C34" font-family="Helvetica Neue, Helvetica, Arial, sans-serif"> 52694</text></g><g class="node" aria-label="graph-node1495" transform="translate(-469.3327571207616,175.7240466377104)"><circle class="b-outline" cx="0" cy="0" r="25" fill="#FFC454" stroke="#d7a013" stroke-width="2px"/><text class="caption" text-anchor="middle" pointer-events="none" x="0" y="5" font-size="10px" fill="#2A2C34" font-family="Helvetica Neue, Helvetica, Arial, sans-serif"> 7803</text></g><g class="node" aria-label="graph-node7435" transform="translate(-466.575897256429,-153.5498265577542)"><circle class="b-outline" cx="0" cy="0" r="25" fill="#FFC454" stroke="#d7a013" stroke-width="2px"/><text class="caption" text-anchor="middle" pointer-events="none" x="0" y="5" font-size="10px" fill="#2A2C34" font-family="Helvetica Neue, Helvetica, Arial, sans-serif"> 16478</text></g><g class="node" aria-label="graph-node1505" transform="translate(-294.9135090665026,186.2824305376116)"><circle class="b-outline" cx="0" cy="0" r="25" fill="#FFC454" stroke="#d7a013" stroke-width="2px"/><text class="caption" text-anchor="middle" pointer-events="none" x="0" y="5" font-size="10px" fill="#2A2C34" font-family="Helvetica Neue, Helvetica, Arial, sans-serif"> 7816</text></g><g class="node" aria-label="graph-node9930" transform="translate(224.03335724799712,-7.106264028685576)"><circle class="b-outline" cx="0" cy="0" r="25" fill="#FFC454" stroke="#d7a013" stroke-width="2px"/><text class="caption" text-anchor="middle" pointer-events="none" x="0" y="5" font-size="10px" fill="#2A2C34" font-family="Helvetica Neue, Helvetica, Arial, sans-serif"> 19984</text></g><g class="node" aria-label="graph-node9567" transform="translate(337.0444866619824,-76.9235548715009)"><circle class="b-outline" cx="0" cy="0" r="25" fill="#FFC454" stroke="#d7a013" stroke-width="2px"/><text class="caption" text-anchor="middle" pointer-events="none" x="0" y="5" font-size="10px" fill="#2A2C34" font-family="Helvetica Neue, Helvetica, Arial, sans-serif"> 19443</text></g><g class="node" aria-label="graph-node1661" transform="translate(-128.2274675107115,201.95877926845122)"><circle class="b-outline" cx="0" cy="0" r="25" fill="#FFC454" stroke="#d7a013" stroke-width="2px"/><text class="caption" text-anchor="middle" pointer-events="none" x="0" y="5" font-size="10px" fill="#2A2C34" font-family="Helvetica Neue, Helvetica, Arial, sans-serif"> 8044</text></g><g class="node" aria-label="graph-node5491" transform="translate(-285.4563519274442,-156.5131629406623)"><circle class="b-outline" cx="0" cy="0" r="25" fill="#FFC454" stroke="#d7a013" stroke-width="2px"/><text class="caption" text-anchor="middle" pointer-events="none" x="0" y="5" font-size="10px" fill="#2A2C34" font-family="Helvetica Neue, Helvetica, Arial, sans-serif"> 13704</text></g><g class="node" aria-label="graph-node8004" transform="translate(215.87362432330758,-152.5993592337738)"><circle class="b-outline" cx="0" cy="0" r="25" fill="#FFC454" stroke="#d7a013" stroke-width="2px"/><text class="caption" text-anchor="middle" pointer-events="none" x="0" y="5" font-size="10px" fill="#2A2C34" font-family="Helvetica Neue, Helvetica, Arial, sans-serif"> 17298</text></g><g class="node" aria-label="graph-node3866" transform="translate(-122.24562529071167,-172.0618971922438)"><circle class="b-outline" cx="0" cy="0" r="25" fill="#FFC454" stroke="#d7a013" stroke-width="2px"/><text class="caption" text-anchor="middle" pointer-events="none" x="0" y="5" font-size="10px" fill="#2A2C34" font-family="Helvetica Neue, Helvetica, Arial, sans-serif"> 11312</text></g><g class="node" aria-label="graph-node2804" transform="translate(30.94927493464357,-155.74701655508773)"><circle class="b-outline" cx="0" cy="0" r="25" fill="#FFC454" stroke="#d7a013" stroke-width="2px"/><text class="caption" text-anchor="middle" pointer-events="none" x="0" y="5" font-size="10px" fill="#2A2C34" font-family="Helvetica Neue, Helvetica, Arial, sans-serif"> 9744</text></g><g class="node" aria-label="graph-node2586" transform="translate(36.494991251891356,2.66863522352898)"><circle class="b-outline" cx="0" cy="0" r="25" fill="#FFC454" stroke="#d7a013" stroke-width="2px"/><text class="caption" text-anchor="middle" pointer-events="none" x="0" y="5" font-size="10px" fill="#2A2C34" font-family="Helvetica Neue, Helvetica, Arial, sans-serif"> 9435</text></g><g class="node" aria-label="graph-node1762" transform="translate(20.564346819969053,157.77740371611992)"><circle class="b-outline" cx="0" cy="0" r="25" fill="#FFC454" stroke="#d7a013" stroke-width="2px"/><text class="caption" text-anchor="middle" pointer-events="none" x="0" y="5" font-size="10px" fill="#2A2C34" font-family="Helvetica Neue, Helvetica, Arial, sans-serif"> 8194</text></g></g></svg>